<svg xmlns="http://www.w3.org/2000/svg" width="336" height="96" viewBox="0 0 88.9 25.4"><g transform="translate(-25.4 -271.6)"><path style="fill:#00723f;fill-opacity:1;stroke:none;stroke-width:.26458332;stroke-linecap:round;stroke-linejoin:round;stroke-miterlimit:4;stroke-dasharray:none;stroke-opacity:1" d="M59.399 279.934a4.233 4.233 0 0 0-2.992 1.242l-.002-.002-4.49 4.49-2.993-2.993-2.994 2.993-2.618-2.619-1.498 1.497 2.62 2.62 1.496 1.496 1.498-1.497 1.496-1.497 1.497 1.497 1.496 1.497 3.399-3.399a4.233 4.233 0 0 0 4.085 3.142 4.233 4.233 0 0 0 2.117-.572v4.805h2.116v-8.466a4.233 4.233 0 0 0-4.233-4.234zm0 2.117a2.117 2.117 0 0 1 2.117 2.117 2.117 2.117 0 0 1-2.117 2.116 2.117 2.117 0 0 1-2.117-2.116 2.117 2.117 0 0 1 2.117-2.117z"/><rect style="fill:#00723f;fill-opacity:1;stroke:none;stroke-width:.26458338;stroke-linecap:round;stroke-linejoin:round;stroke-miterlimit:4;stroke-dasharray:none;stroke-opacity:1" width="2.117" height="16.933" x="138.408" y="249.965" ry=".307" transform="rotate(15)"/><g style="font-style:normal;font-variant:normal;font-weight:400;font-stretch:normal;font-size:16.29674149px;line-height:1.25;font-family:Stencil;-inkscape-font-specification:Stencil;letter-spacing:0;word-spacing:0;fill:#00723f;fill-opacity:1;stroke:none;stroke-width:.40741855"><path d="m23.362 281.087.27-.453q.184-.303.534-.303.167 0 .31.056.406.167.406.613 0 .135-.12.525-.31 1.003-.509 2.427-.08.597-.08 1.01 0 .995.622.995.588 0 1.026-.748.541-.939.541-2.3 0-1.098-.541-2.013-1.297-2.156-4.082-2.156-1.95 0-3.382 1.32-1.6 1.473-1.6 3.749 0 2.61 1.823 3.97 1.289.971 3.254.971 2.602 0 4.274-1.305.286-.223.533-.223.286 0 .509.247.183.191.183.478 0 .318-.27.557-1.823 1.599-5.229 1.599-2.952 0-4.687-1.647-1.822-1.727-1.822-4.647 0-2.42 1.52-4.194 1.146-1.337 2.825-1.886.987-.326 2.053-.326 2.18 0 3.86 1.194 1.17.827 1.782 2.06.54 1.083.54 2.284 0 2.093-1.2 3.39-.94 1.01-2.15 1.01-.668 0-1.097-.445-.335-.35-.39-.939-.708 1.52-2.356 1.52-1.328 0-2.076-1.098-.542-.788-.542-1.997 0-1.799 1.027-3.064.995-1.241 2.443-1.241 1.25 0 1.798 1.01zm-1.703.358q-.811 0-1.384.836-.581.835-.581 2.077 0 .676.262 1.09.319.517.884.517.787 0 1.345-.883.557-.875.557-2.18 0-.756-.35-1.138-.28-.319-.733-.319z" style="font-style:normal;font-variant:normal;font-weight:400;font-stretch:normal;font-family:'UD Digi Kyokasho NK-B';-inkscape-font-specification:'UD Digi Kyokasho NK-B';fill:#00723f;fill-opacity:1;stroke-width:.40741855" transform="translate(12.832 1.984)" aria-label="@"/></g><text y="289.157" x="71.646" style="font-style:normal;font-weight:400;font-size:14.11111069px;line-height:1.25;font-family:sans-serif;letter-spacing:0;word-spacing:0;fill:#555595;fill-opacity:1;stroke:none;stroke-width:.91486722" xml:space="preserve"><tspan style="font-style:normal;font-variant:normal;font-weight:400;font-stretch:normal;font-size:14.11111069px;font-family:sans-serif;-inkscape-font-specification:sans-serif;fill:#555595;fill-opacity:1;stroke-width:.91486722" y="289.157" x="71.646">chart</tspan></text></g></svg>