<svg xmlns="http://www.w3.org/2000/svg" width="96" height="96" viewBox="0 0 25.4 25.4"><g transform="translate(-25.4 -220.8)"><rect x="25.4" style="fill:#00532e;fill-opacity:1;stroke:none;stroke-width:.49999994;stroke-linecap:round;stroke-linejoin:round;stroke-miterlimit:4;stroke-dasharray:none;stroke-opacity:1" width="25.4" height="1.323" y="242.76" ry="0"/><rect x="25.4" style="fill:#00532e;fill-opacity:1;stroke:none;stroke-width:.49999994;stroke-linecap:round;stroke-linejoin:round;stroke-miterlimit:4;stroke-dasharray:none;stroke-opacity:1" width="25.4" height="1.323" y="222.917" ry="0"/><g style="fill:#00723f;fill-opacity:1"><path style="fill:#00723f;fill-opacity:1;stroke:none;stroke-width:.26458332;stroke-linecap:round;stroke-linejoin:round;stroke-miterlimit:4;stroke-dasharray:none;stroke-opacity:1" d="M19.05 208.1v14.42a12.7 12.7 0 0 0-6.35-1.72A12.7 12.7 0 0 0 0 233.5a12.7 12.7 0 0 0 12.7 12.7 12.7 12.7 0 0 0 12.7-12.7v-25.4zm-6.35 19.05a6.35 6.35 0 0 1 6.35 6.35 6.35 6.35 0 0 1-6.35 6.35 6.35 6.35 0 0 1-6.35-6.35 6.35 6.35 0 0 1 6.35-6.35z" transform="matrix(.33333 0 0 .33333 25.4 155.667)"/><path d="M144 96a48 48 0 0 0-48 48v48h24v-48a24 24 0 0 1 24-24 24 24 0 0 1 24 24h24a48 48 0 0 0-48-48Z" style="fill:#00723f;fill-opacity:1;stroke:none;stroke-width:.99999994;stroke-linecap:round;stroke-linejoin:round;stroke-miterlimit:4;stroke-dasharray:none;stroke-opacity:1" transform="matrix(.0882 0 0 .0882 25.4 220.8)"/><path d="M57.15 258.9v-14.42a12.7 12.7 0 0 0 6.35 1.72 12.7 12.7 0 0 0 12.7-12.7 12.7 12.7 0 0 0-12.7-12.7 12.7 12.7 0 0 0-12.7 12.7v25.4zm6.35-19.05a6.35 6.35 0 0 1-6.35-6.35 6.35 6.35 0 0 1 6.35-6.35 6.35 6.35 0 0 1 6.35 6.35 6.35 6.35 0 0 1-6.35 6.35z" style="fill:#00723f;fill-opacity:1;stroke:none;stroke-width:.26458332;stroke-linecap:round;stroke-linejoin:round;stroke-miterlimit:4;stroke-dasharray:none;stroke-opacity:1" transform="matrix(.33333 0 0 .33333 25.4 155.667)"/></g><path style="fill:#c3ff00;fill-opacity:1;stroke:none;stroke-width:.08819332;stroke-linecap:round;stroke-linejoin:round;stroke-miterlimit:4;stroke-dasharray:none;stroke-opacity:1" d="M46.513 229.27a4.233 4.233 0 0 0-.842.095l.373.373zm-8.235.003-.84.84.375.373 1.122-1.122-.012-.012a4.233 4.233 0 0 0-.645-.079zm-1.478.201a4.233 4.233 0 0 0-1.24.646l-.18.18.375.374 1.122-1.123zm2.995.153-.299.298.374.374.418-.417a4.233 4.233 0 0 0-.493-.255zm7.372.111-1.123 1.123.375.374 1.122-1.123zm-2.058.187-1.123 1.123.375.374 1.122-1.123-.374-.374zm3.735.007-.742.742.374.374.798-.797a4.233 4.233 0 0 0-.43-.319zm-14.977.01-.545.544.375.375.17-.17v-.749zm7.065.418-1.061 1.062.374.374 1.059-1.06a4.233 4.233 0 0 0-.372-.376zm-1.997.127-.9.899a2.117 2.117 0 0 1 .065-.002 2.117 2.117 0 0 1 .599.087l.61-.61-.374-.374zm-2.058.187-1.122 1.122.374.374 1.122-1.122zm-2.058.187-.104.104a4.233 4.233 0 0 0-.68 1.357l.036.035 1.122-1.122zm-2.058.187-1.122 1.122.374.375 1.122-1.123zm14.78.187-.271.271a2.117 2.117 0 0 1 .497.251l.148-.148zm-2.058.187-1.122 1.123.222.222a2.117 2.117 0 0 1 1.07-1.174zm-2.058.187-.99.99a4.233 4.233 0 0 0-.045.22l.287.287 1.122-1.123-.374-.374zm-2.058.187-1.122 1.123.374.374 1.122-1.123zm-7.5.017-.17.17.17.17zm1.326.544-1.122 1.123.374.374 1.123-1.122zm-2.058.187-1.122 1.123.374.374 1.123-1.122zm10.664.562-1.122 1.122.374.374 1.122-1.122zm-2.058.187-.207.207h.415zm-6.173.561-1.123 1.122.374.375 1.123-1.123-.374-.374zm-2.058.187-1.123 1.123.374.374.964-.964a4.233 4.233 0 0 0 .059-.259l-.274-.274zm-1.938.307a2.117 2.117 0 0 1-1.136 1.109l.267.268 1.123-1.123-.254-.254zm2.295.05v.035l.017-.018zm10.306.204-1.122 1.123.374.374 1.123-1.123zm-1.84.405v.313l.157-.156zm-13.818.287-.244.244.374.374.385-.384a2.117 2.117 0 0 1-.515-.234zm7.427.057-1.123 1.122.374.374.79-.79v-.665l-.041-.041zm-2.058.187-.017.017v.748l.391-.391zm-2.058.187-1.123 1.122.374.375 1.123-1.123zm-2.058.187-1.122 1.123.374.374 1.122-1.123-.374-.374zm-2.058.187-.713.713a4.233 4.233 0 0 0 .444.305l.643-.644zm14.78.187-.157.157v.748l.53-.53-.373-.375zm-8.232.749-.391.39v.308h.44l.325-.324zm1.725.145-.553.553h.553Zm-5.841.229-.315.315a4.233 4.233 0 0 0 .567-.063z"/></g></svg>