<svg xmlns="http://www.w3.org/2000/svg" viewBox="0 0 76.2 76.2" height="288" width="288"><g transform="translate(0 -195.4)"><rect ry="0" y="261.281" height="3.969" width="76.2" style="fill:#00532e;fill-opacity:1;stroke:none;stroke-width:1.5;stroke-linecap:round;stroke-linejoin:round;stroke-miterlimit:4;stroke-dasharray:none;stroke-opacity:1"/><rect ry="0" y="201.75" height="3.969" width="76.2" style="fill:#00532e;fill-opacity:1;stroke:none;stroke-width:1.5;stroke-linecap:round;stroke-linejoin:round;stroke-miterlimit:4;stroke-dasharray:none;stroke-opacity:1"/><g style="fill:#00723f;fill-opacity:1"><path d="M19.05 208.1v14.42a12.7 12.7 0 0 0-6.35-1.72A12.7 12.7 0 0 0 0 233.5a12.7 12.7 0 0 0 12.7 12.7 12.7 12.7 0 0 0 12.7-12.7v-25.4zm-6.35 19.05a6.35 6.35 0 0 1 6.35 6.35 6.35 6.35 0 0 1-6.35 6.35 6.35 6.35 0 0 1-6.35-6.35 6.35 6.35 0 0 1 6.35-6.35z" style="fill:#00723f;fill-opacity:1;stroke:none;stroke-width:.26458332;stroke-linecap:round;stroke-linejoin:round;stroke-miterlimit:4;stroke-dasharray:none;stroke-opacity:1"/><path transform="matrix(.26458 0 0 .26458 0 195.4)" style="fill:#00723f;fill-opacity:1;stroke:none;stroke-width:.99999994;stroke-linecap:round;stroke-linejoin:round;stroke-miterlimit:4;stroke-dasharray:none;stroke-opacity:1" d="M144 96a48 48 0 0 0-48 48v48h24v-48a24 24 0 0 1 24-24 24 24 0 0 1 24 24h24a48 48 0 0 0-48-48Z"/><path style="fill:#00723f;fill-opacity:1;stroke:none;stroke-width:.26458332;stroke-linecap:round;stroke-linejoin:round;stroke-miterlimit:4;stroke-dasharray:none;stroke-opacity:1" d="M57.15 258.9v-14.42a12.7 12.7 0 0 0 6.35 1.72 12.7 12.7 0 0 0 12.7-12.7 12.7 12.7 0 0 0-12.7-12.7 12.7 12.7 0 0 0-12.7 12.7v25.4zm6.35-19.05a6.35 6.35 0 0 1-6.35-6.35 6.35 6.35 0 0 1 6.35-6.35 6.35 6.35 0 0 1 6.35 6.35 6.35 6.35 0 0 1-6.35 6.35z"/></g><path transform="matrix(.26458 0 0 .26458 0 195.4)" d="M239.393 96.031a48 48 0 0 0-9.543 1.082l4.23 4.23 5.313-5.312zm-93.377.041-9.516 9.514 4.242 4.242 12.729-12.726-.139-.14a48 48 0 0 0-7.316-.89zm-16.756 2.276a48 48 0 0 0-14.065 7.33l-2.029 2.029 4.242 4.244 12.729-12.728-.877-.875zm33.96 1.732-3.386 3.385 4.242 4.242 4.74-4.738a48 48 0 0 0-5.595-2.889zm83.589 1.264-12.729 12.728 4.244 4.242 12.727-12.728-4.242-4.242zm-23.334 2.12-12.729 12.73 4.242 4.242 12.729-12.729-4.242-4.242zm42.345.08-8.404 8.407 4.242 4.242 9.04-9.039a48 48 0 0 0-4.878-3.61zM96 103.659l-6.17 6.17 4.244 4.244L96 112.146v-8.488zm80.113 4.74-12.035 12.038 4.242 4.242 12.01-12.01a48 48 0 0 0-4.217-4.27zm-22.642 1.432-10.198 10.195A24 24 0 0 1 144 120a24 24 0 0 1 6.79.994l6.923-6.922-4.242-4.242zm-23.334 2.121-12.729 12.727 4.242 4.244 12.729-12.729-4.242-4.242zm-23.336 2.121-1.18 1.18a48 48 0 0 0-7.701 15.394l.396.397 12.729-12.729-4.244-4.242zm-23.334 2.121-12.729 12.729 4.244 4.242 12.727-12.728-4.242-4.243zm167.584 2.121-3.078 3.079a24 24 0 0 1 5.64 2.845l1.682-1.681-4.244-4.243zm-23.334 2.122-12.729 12.728 2.528 2.527a24 24 0 0 1 12.136-13.32l-1.935-1.935zm-23.334 2.12-11.22 11.221a48 48 0 0 0-.517 2.5l3.25 3.25 12.729-12.728-4.242-4.242zm-23.336 2.122-12.727 12.728 4.243 4.242 12.728-12.726-4.244-4.244zM96 124.873l-1.926 1.926L96 128.725v-3.852zm15.045 6.17L98.316 143.77l4.243 4.244 12.728-12.729-4.242-4.242zm-23.336 2.121-12.727 12.727 4.243 4.244 12.728-12.729-4.244-4.242zm120.916 6.363-12.729 12.729 4.245 4.242 12.726-12.728-4.242-4.243zm-23.334 2.121L182.939 144h4.704l-2.352-2.352zm-70.004 6.366L102.56 160.74l4.242 4.244 12.728-12.728-4.242-4.242zm-23.334 2.12-12.728 12.727 4.242 4.244L94.4 156.172a48 48 0 0 0 .659-2.932l-3.106-3.105zm-21.976 3.48a24 24 0 0 1-12.88 12.575l3.036 3.038 12.728-12.729-2.884-2.885zm26.023.568v.39l.195-.195-.195-.195zm116.867 2.316-12.728 12.729 4.244 4.242 12.726-12.729-4.242-4.242zM192 161.086v3.55l1.775-1.775-1.775-1.775zm-156.682 3.256-2.763 2.763 4.244 4.243 4.355-4.358a24 24 0 0 1-5.836-2.648zm84.211.642-12.728 12.727 4.244 4.242 8.955-8.955v-7.543l-.47-.47zm-23.334 2.121-.195.196v8.484l4.438-4.437-4.243-4.243zm-23.334 2.122-12.728 12.726 4.242 4.244 12.729-12.728-4.243-4.242zm-23.336 2.12L36.8 184.078l4.242 4.241 12.727-12.728-4.243-4.242zm-23.334 2.122-8.084 8.084a48 48 0 0 0 5.032 3.453l7.295-7.295-4.243-4.242zm167.584 2.12L192 177.366v8.485l6.018-6.018-4.243-4.242zm-93.338 8.487L96 188.514V192h4.998l3.682-3.682-4.243-4.242zM120 185.725 113.727 192H120v-6.275zm-66.232 2.593-3.57 3.573a48 48 0 0 0 6.433-.711l-2.863-2.862z" style="fill:#c3ff00;fill-opacity:1;stroke:none;stroke-width:.99999994;stroke-linecap:round;stroke-linejoin:round;stroke-miterlimit:4;stroke-dasharray:none;stroke-opacity:1"/></g></svg>